:SAMPLES-PER-SECOND 30
:FULLY-SPECIFIED
:DEGREES
172
root  -3.25058 40.8929 -0.460612 -39.0876 -88.9273 39.3262
RightUpLeg  4.55176 -1.78687 -0.479582
RightLeg  -1.31572 -20.5612 1.29191
RightFoot  -2.52136 -0.171518 1.95336
RightToes  -3.13006e-008 1.75238e-005 3.56266e-009
Spine  -1.94673 -1.85661 -3.57779
Spine1  6.53313 -1.5953 -0.430164
HEad  -22.4988 -10.4605 2.23489
LeftShoulder1  0.975047 0.122848 -22.5139
LeftArm  -48.8045 39.7977 -51.8797
LeftForeArm  117.657 -57.7549 -160.1
LeftHand  -0.0382982 -1.46918 0.787186
RightShoulder  1.0609 0.546407 19.8675
RightArm  -6.46744 -35.7357 42.7975
RightForeArm  123.667 75.8429 132.676
RightHand  -0.741529 7.5958 -6.97288
LeftUpLeg  3.91788 1.6084 3.49835
LeftLeg  -2.44084 11.1106 -0.574631
LeftFoot  -0.473652 0.441717 -4.69128
LeftToes  4.76866e-008 1.46233e-008 1.30548e-009
173
root  -3.28225 40.8937 -0.462967 -17.2536 -88.1753 17.4892
RightUpLeg  4.67202 -1.785 -0.460466
RightLeg  -1.23457 -21.3064 1.22364
RightFoot  -2.59894 -0.182702 2.13558
RightToes  -3.13006e-008 1.75238e-005 3.56266e-009
Spine  -2.20142 -1.99083 -3.59838
Spine1  6.89418 -1.67313 -0.618958
HEad  -22.1558 -10.5675 2.05174
LeftShoulder1  0.953111 0.21563 -22.6577
LeftArm  -47.3556 38.9277 -51.4779
LeftForeArm  117.622 -57.7991 -160.066
LeftHand  -0.0237565 -1.61592 0.533267
RightShoulder  1.12315 0.745337 20.1233
RightArm  -7.00284 -35.2286 42.7004
RightForeArm  123.8 75.8374 132.723
RightHand  -0.769925 7.67645 -7.18492
LeftUpLeg  3.80511 1.6464 3.53219
LeftLeg  -2.37234 10.2198 -0.610952
LeftFoot  -0.445979 0.439537 -4.65994
LeftToes  4.76866e-008 1.46233e-008 1.30548e-009
174
root  -3.31931 40.8917 -0.441561 -15.5884 -87.509 15.7364
RightUpLeg  4.85117 -1.98403 -0.623757
RightLeg  -1.13746 -21.7529 1.2515
RightFoot  -2.75238 -0.185259 2.18117
RightToes  -3.13006e-008 1.75238e-005 3.56266e-009
Spine  -2.4198 -1.9606 -3.71354
Spine1  7.39531 -1.63209 -0.569899
HEad  -22.3137 -11.2689 1.60548
LeftShoulder1  0.9982 0.0778087 -22.821
LeftArm  -46.1718 37.9146 -51.226
LeftForeArm  117.986 -57.9833 -159.957
LeftHand  -0.0636732 -1.92632 1.18475
RightShoulder  1.08274 0.590171 20.142
RightArm  -7.60006 -34.8056 42.8681
RightForeArm  123.831 75.8426 132.71
RightHand  -0.821512 7.56394 -7.70077
LeftUpLeg  3.85928 1.51546 3.36787
LeftLeg  -2.37661 9.71134 -0.546917
LeftFoot  -0.440054 0.433582 -4.57225
LeftToes  4.76866e-008 1.46233e-008 1.30548e-009
175
root  -3.3536 40.8883 -0.415841 -13.5753 -87.0205 13.7283
RightUpLeg  5.06427 -2.124 -0.721103
RightLeg  -1.38352 -22.1269 1.44221
RightFoot  -2.76241 -0.179318 2.09216
RightToes  -3.13006e-008 1.75238e-005 3.56266e-009
Spine  -2.61798 -1.92051 -3.79323
Spine1  7.63326 -1.60615 -0.468812
HEad  -22.4474 -10.9155 1.05041
LeftShoulder1  0.961922 0.185716 -22.6649
LeftArm  -44.8703 37.0352 -50.9609
LeftForeArm  117.732 -58.2074 -159.778
LeftHand  -0.0462023 -1.7856 0.905539
RightShoulder  1.03271 0.420155 20.0103
RightArm  -7.78773 -34.4323 42.8515
RightForeArm  123.636 76.022 132.019
RightHand  -0.810599 7.7364 -7.51209
LeftUpLeg  3.78464 1.45883 3.2916
LeftLeg  -2.27133 9.28057 -0.489617
LeftFoot  -0.504679 0.429375 -4.51448
LeftToes  4.76866e-008 1.46233e-008 1.30548e-009
176
root  -3.37898 40.888 -0.391886 -12.3181 -86.6497 12.4458
RightUpLeg  5.22616 -2.2054 -0.776793
RightLeg  -1.49705 -22.4455 1.52901
RightFoot  -2.77768 -0.179763 2.09945
RightToes  -3.13006e-008 1.75238e-005 3.56266e-009
Spine  -2.74377 -1.84263 -3.68097
Spine1  7.82272 -1.48902 -0.60839
HEad  -22.2755 -11.0618 0.883214
LeftShoulder1  0.946236 0.193579 -22.2364
LeftArm  -43.3843 35.6738 -50.4036
LeftForeArm  117.419 -58.625 -159.449
LeftHand  -0.0335165 -1.30726 0.711193
RightShoulder  1.04273 0.482273 19.8351
RightArm  -8.0105 -34.5513 42.7184
RightForeArm  123.497 76.0133 132.018
RightHand  -0.777515 7.78855 -7.19758
LeftUpLeg  3.80956 1.44897 3.25797
LeftLeg  -2.30066 8.92427 -0.502588
LeftFoot  -0.504216 0.424651 -4.45157
LeftToes  4.76866e-008 1.46233e-008 1.30548e-009
177
root  -3.40404 40.8876 -0.364376 -12.1434 -86.2438 12.141
RightUpLeg  5.44751 -2.29153 -0.869402
RightLeg  -1.4966 -22.7503 1.512
RightFoot  -2.81368 -0.183843 2.16038
RightToes  -3.13006e-008 1.75238e-005 3.56266e-009
Spine  -2.96352 -1.85398 -3.7273
Spine1  8.27521 -1.49111 -0.590907
HEad  -22.0905 -10.9716 1.01447
LeftShoulder1  0.941788 0.175801 -21.9324
LeftArm  -41.7412 33.3381 -48.9873
LeftForeArm  116.436 -59.3713 -158.809
LeftHand  -0.0420703 -1.1584 0.866135
RightShoulder  1.03041 0.45968 19.6614
RightArm  -7.79053 -33.9153 42.4335
RightForeArm  121.355 76.1825 130.9
RightHand  -0.82923 7.42074 -7.84809
LeftUpLeg  3.93888 1.39694 3.1571
LeftLeg  -2.31288 8.58285 -0.493647
LeftFoot  -0.514846 0.419345 -4.38268
LeftToes  4.76866e-008 1.46233e-008 1.30548e-009
178
root  -3.41259 40.8872 -0.325173 -10.921 -85.5047 10.8124
RightUpLeg  5.62048 -2.34819 -0.933745
RightLeg  -1.41766 -23.4215 1.43416
RightFoot  -2.8689 -0.199192 2.39333
RightToes  -3.13006e-008 1.75238e-005 3.56266e-009
Spine  -3.21584 -1.99593 -3.90172
Spine1  8.74939 -1.67604 -0.352971
HEad  -21.8501 -10.3546 0.84265
LeftShoulder1  0.983267 0.00524919 -21.7315
LeftArm  -39.6527 30.1575 -46.8356
LeftForeArm  115.429 -60.5893 -157.746
LeftHand  -0.0293356 -1.48498 0.634721
RightShoulder  1.04258 0.537205 19.4445
RightArm  -7.907 -33.368 41.9953
RightForeArm  120.428 76.3329 130.1
RightHand  -0.79183 7.51552 -7.46247
LeftUpLeg  3.87796 1.30636 3.03886
LeftLeg  -2.14447 7.93913 -0.423117
LeftFoot  -0.570281 0.41905 -4.39521
LeftToes  4.76866e-008 1.46233e-008 1.30548e-009
179
root  -3.42132 40.8868 -0.288434 -11.3869 -85.0136 11.1297
RightUpLeg  5.7217 -2.35176 -1.02564
RightLeg  -1.12175 -23.8585 1.16052
RightFoot  -2.96258 -0.214597 2.62438
RightToes  -3.13006e-008 1.75238e-005 3.56266e-009
Spine  -3.74833 -1.99348 -4.14075
Spine1  9.54974 -1.70611 -0.0810233
HEad  -20.9808 -10.0197 1.21675
LeftShoulder1  1.09778 -0.438052 -21.4614
LeftArm  -37.6269 26.2192 -44.855
LeftForeArm  114.025 -61.9632 -156.417
LeftHand  -0.0437912 -0.769533 0.915722
RightShoulder  1.1052 0.785556 19.4004
RightArm  -7.88516 -33.0267 41.2715
RightForeArm  121.139 76.3078 130.364
RightHand  -0.795156 7.76091 -7.36249
LeftUpLeg  4.03017 1.18003 2.83899
LeftLeg  -2.22628 7.62211 -0.394783
LeftFoot  -0.535373 0.409788 -4.2715
LeftToes  4.76866e-008 1.46233e-008 1.30548e-009
180
root  -3.43105 40.8868 -0.254851 -11.2672 -84.4999 10.8416
RightUpLeg  5.95163 -2.52717 -1.19793
RightLeg  -1.05249 -24.0979 1.18731
RightFoot  -2.99804 -0.226319 2.79552
RightToes  -3.13006e-008 1.75238e-005 3.56266e-009
Spine  -4.23079 -2.11927 -4.46971
Spine1  10.2878 -1.89802 0.296727
HEad  -20.2737 -9.48528 0.998505
LeftShoulder1  1.14756 -0.667089 -21.1061
LeftArm  -35.7514 21.2437 -43.535
LeftForeArm  112.333 -63.6387 -154.617
LeftHand  -0.0605425 -0.341697 1.27044
RightShoulder  1.16238 1.01763 19.3314
RightArm  -8.08591 -32.2773 40.682
RightForeArm  120.922 76.4836 129.612
RightHand  -0.753891 7.83687 -6.96424
LeftUpLeg  4.20525 1.14323 2.74044
LeftLeg  -2.31477 7.21105 -0.412863
LeftFoot  -0.514036 0.407878 -4.26609
LeftToes  4.76866e-008 1.46233e-008 1.30548e-009
181
root  -3.43103 40.8875 -0.217875 -9.67979 -83.8729 9.08354
RightUpLeg  6.31528 -2.57107 -1.16218
RightLeg  -1.30835 -24.71 1.32195
RightFoot  -2.91365 -0.224582 2.75503
RightToes  -3.13006e-008 1.75238e-005 3.56266e-009
Spine  -4.17684 -2.28386 -4.83668
Spine1  10.2217 -2.22591 0.948146
HEad  -19.3667 -9.17932 0.714044
LeftShoulder1  1.25894 -1.09065 -20.9922
LeftArm  -33.9527 16.4808 -42.5345
LeftForeArm  109.533 -65.3238 -152.481
LeftHand  -0.064716 -0.376347 1.36327
RightShoulder  1.18797 1.12448 19.2839
RightArm  -8.18372 -31.5366 40.1104
RightForeArm  119.866 76.6552 128.647
RightHand  -0.789741 8.09311 -7.15084
LeftUpLeg  4.2241 1.14455 2.73879
LeftLeg  -2.1739 6.51308 -0.331414
LeftFoot  -0.522799 0.392384 -4.05298
LeftToes  4.76866e-008 1.46233e-008 1.30548e-009
182
root  -3.42543 40.8916 -0.172468 -8.89308 -83.7311 8.21663
RightUpLeg  6.52719 -2.46796 -1.07323
RightLeg  -1.59792 -25.0418 1.35322
RightFoot  -2.76006 -0.225933 2.75964
RightToes  -3.13006e-008 1.75238e-005 3.56266e-009
Spine  -4.25261 -2.36874 -5.07659
Spine1  10.2255 -2.43098 1.41188
HEad  -18.2092 -8.28633 0.470267
LeftShoulder1  1.32596 -1.37878 -20.7339
LeftArm  -32.1123 12.2888 -42.5631
LeftForeArm  108.404 -66.6427 -150.681
LeftHand  -0.121966 0.0407027 2.66122
RightShoulder  1.15999 1.01982 19.255
RightArm  -8.16175 -30.5856 40.08
RightForeArm  118.975 76.7103 128.188
RightHand  -0.799949 7.74693 -7.41388
LeftUpLeg  4.25417 1.2687 2.81435
LeftLeg  -2.11799 6.23554 -0.41305
LeftFoot  -0.529317 0.388264 -4.04838
LeftToes  4.76866e-008 1.46233e-008 1.30548e-009
183
root  -3.41571 40.8958 -0.122408 -8.87651 -83.7414 8.08194
RightUpLeg  6.64891 -2.52083 -1.14895
RightLeg  -1.61517 -25.0287 1.36562
RightFoot  -2.69069 -0.233712 2.84173
RightToes  -3.13006e-008 1.75238e-005 3.56266e-009
Spine  -4.58291 -2.64406 -5.53425
Spine1  10.7922 -2.83629 1.96383
HEad  -17.4353 -7.31808 0.431109
LeftShoulder1  1.40289 -1.69475 -20.5533
LeftArm  -31.4735 9.06985 -43.3436
LeftForeArm  108.207 -67.4803 -149.472
LeftHand  -0.106323 -0.0979097 2.27218
RightShoulder  1.30791 1.53658 19.5833
RightArm  -8.45829 -30.0215 39.7499
RightForeArm  119.637 76.4438 129.452
RightHand  -0.806343 7.51347 -7.59383
LeftUpLeg  4.39481 1.2713 2.76758
LeftLeg  -2.15421 6.23734 -0.440471
LeftFoot  -0.512353 0.383258 -4.02468
LeftToes  4.76866e-008 1.46233e-008 1.30548e-009
184
root  -3.39272 40.8962 -0.0661702 -8.57576 -83.9643 7.78607
RightUpLeg  6.57433 -2.48106 -1.17289
RightLeg  -1.59166 -24.8808 1.33857
RightFoot  -2.61512 -0.236298 2.8554
RightToes  -3.13006e-008 1.75238e-005 3.56266e-009
Spine  -4.64991 -2.81709 -5.96589
Spine1  10.9823 -3.20941 2.73547
HEad  -17.1522 -6.2863 0.341375
LeftShoulder1  1.51034 -2.08363 -20.6066
LeftArm  -31.1397 6.94195 -44.7596
LeftForeArm  108.782 -67.8986 -148.896
LeftHand  -0.128971 -0.660891 2.57186
RightShoulder  1.3782 1.76574 19.7966
RightArm  -9.03072 -28.4513 39.8697
RightForeArm  117.663 76.9983 126.598
RightHand  -0.747421 7.72356 -6.96169
LeftUpLeg  4.39331 1.31594 2.76379
LeftLeg  -2.15151 6.40216 -0.499544
LeftFoot  -0.530852 0.370737 -3.88324
LeftToes  4.76866e-008 1.46233e-008 1.30548e-009
